# xmcd
#
# Track frame offsets:
# 150
# 11007
# 20815
# 34453
# 44869
# 55556
# 63942
# 71126
# 82926
# 95526
# 112636
# 130510
# 146517
# 153647
# 158573
#
# Disc length: 2239 seconds
#
# Revision: 1
# Processed by: cddbd v1.5.1PL2 Copyright (c) Steve Scherf et al.
# Submitted via: Easy CD Ripper v2.37
#
DISCID=c308bd0f
DTITLE=Wisconsin Opry - Christmas Volume II
DYEAR=2002
DGENRE=Country
TTITLE0=I'll Be HOme with Bells On - Wisconsin Opry
TTITLE1=We Need a Little Christmas Righ - Wisconsin Opry
TTITLE2=Cowboy Christmas - Wisconsin Opry
TTITLE3=Marshmallow World - Wisconsin Opry
TTITLE4=Christmas Polka - Wisconsin Opry
TTITLE5=Christmas Times R Com'n - Wisconsin Opry
TTITLE6=Sugar Plumb Rag - Wisconsin Opry
TTITLE7=Blue Christmas - Wisconsin Opry
TTITLE8=Santa Baby - Wisconsin Opry
TTITLE9=What R U doing 4 NEw Years - Wisconsin Opry
TTITLE10=Christmas memories - Wisconsin Opry
TTITLE11=Christmas Story Luke 2:1-14 - Wisconsin Opry
TTITLE12=Silent Night - Wisconsin Opry
TTITLE13=Christmas Song - Wisconsin Opry
TTITLE14=Merry Little Christmas Acousitc - Wisconsin Opry
EXTD=Wisconsin Opry Christmas Volume II
EXTT0=
EXTT1=
EXTT2=
EXTT3=
EXTT4=
EXTT5=
EXTT6=
EXTT7=
EXTT8=
EXTT9=
EXTT10=
EXTT11=
EXTT12=
EXTT13=
EXTT14=
PLAYORDER=
